<?xml version="1.0" encoding="UTF-8"?><svg id="Layer_1" xmlns="http://www.w3.org/2000/svg" viewBox="0 0 512 104.91"><defs><style>.cls-1{fill:#1a1a1a;}</style></defs><path class="cls-1" d="M120.73,0c-26.44,0-35.3,12.25-35.3,33.2v38.13c0,20.96,8.86,33.58,35.3,33.58s35.3-12.62,35.3-33.45V33.2C156.03,12.37,147.02,0,120.73,0Zm10.49,76.5c0,6.94-1.33,13.51-10.49,13.51s-10.49-6.56-10.49-13.51V28.15c0-7.07,1.33-13.26,10.49-13.26s10.49,6.19,10.49,13.26v48.35Z"/><path class="cls-1" d="M216.79,49.24l-12.11-9.09c-6.65-4.92-10.78-8.84-10.78-16.16,0-4.42,2.81-8.71,8.42-8.71,7.98,0,9.16,6.44,9.45,15.78l21.12-2.65c-.89-13.13-5.76-28.41-29.83-28.41-19.94,0-32.49,9.22-32.49,26.01,0,11.99,6.35,19.44,15.21,25.88l12.41,9.22c7.98,5.93,13.14,10.86,13.14,19.57,0,4.42-1.92,8.33-8.12,8.33-7.83,0-11.37-6.19-11.82-18.94l-20.97,3.03c1.03,21.71,11.67,31.81,33.82,31.81,18.61,0,30.87-10.73,30.87-25.38,0-13.89-8.27-22.85-18.31-30.3Z"/><polygon class="cls-1" points="273.81 57.31 295.37 57.31 295.37 42.8 273.81 42.8 273.81 15.65 301.72 15.65 301.72 1.26 249.59 1.26 249.59 103.52 302.02 103.52 302.02 89.38 273.81 89.38 273.81 57.31"/><path class="cls-1" d="M345.33,1.26h-29.24V103.52h29.83c29.69,0,38.69-10.23,38.69-32.95V33.33c0-22.22-9.01-32.07-39.29-32.07Zm14.33,71.58c0,10.73-.74,16.16-14.03,16.16h-5.32V15.91h5.17c12.85,0,14.18,4.29,14.18,14.64v42.29Z"/><rect class="cls-1" x="400.78" y="1.26" width="24.22" height="102.26"/><path class="cls-1" d="M476.7,0c-26.44,0-35.3,12.25-35.3,33.2v38.13c0,20.96,8.86,33.58,35.3,33.58s35.3-12.62,35.3-33.45V33.2c0-20.83-9.01-33.2-35.3-33.2Zm10.48,76.5c0,6.94-1.33,13.51-10.48,13.51s-10.49-6.56-10.49-13.51V28.15c0-7.07,1.33-13.26,10.49-13.26s10.48,6.19,10.48,13.26v48.35Z"/><g><rect class="cls-1" x="38.84" y="30.4" width="5.83" height="7.67"/><path class="cls-1" d="M38.06,1.27L0,1.23V104.91l23.47-13.54,1.01-14.14s.05,0,.07,0c7.2-.96,14.42-1.89,21.57-3.25,6.83-1.3,13.16-3.37,17.95-8.63,6.9-7.58,8.39-17.6,8.4-27.49,.02-27.39-12.69-36.57-34.4-36.57Zm-7.03,70.44l18.71-10.81,.54,7.45c-1.47,.61-9.98,2.03-19.25,3.36Zm-5.89-1.52l.68-9.74,22.94-13.24,.64,9-24.26,13.99Zm29.3-28.12c0,.22-.18,.4-.4,.4h-5.63l-22.21,12.83,.92-12.83h-5.62c-.22,0-.4-.18-.4-.4v-1.14c0-1.57,1.28-2.85,2.85-2.85h4.81v-7.67h-2.7c-.22,0-.4-.18-.4-.4v-.83c0-1.07,.87-1.94,1.94-1.94h1.37c.22,0,.4-.18,.4-.4v-5.2c.01-4.58,3.72-8.3,8.31-8.31h.21c4.58,.01,8.3,3.72,8.31,8.31v5.21c0,.22,.18,.4,.4,.4h1.37c1.07,0,1.95,.88,1.95,1.95v.81c0,.22-.18,.4-.4,.4h-2.7v7.68h4.81c1.57,0,2.84,1.27,2.84,2.84v1.15Z"/><rect class="cls-1" x="30.88" y="30.4" width="5.83" height="7.67"/></g></svg>