<svg width="392" height="174" fill="none" xmlns="http://www.w3.org/2000/svg"><path d="M182.184 77.231a347.309 347.309 0 0 0 4.121-4.578 265.348 265.348 0 0 0 4.212-4.67 500.628 500.628 0 0 0 3.755-4.488 183.637 183.637 0 0 0 3.113-3.662h16.208a613.752 613.752 0 0 1-9.523 10.714 260.117 260.117 0 0 1-10.073 10.439c1.831 1.648 3.724 3.632 5.677 5.952a130.214 130.214 0 0 1 5.678 7.051 104.88 104.88 0 0 1 5.036 7.326c1.527 2.442 2.809 4.67 3.846 6.685h-15.659a142.946 142.946 0 0 0-3.388-5.22 87.8 87.8 0 0 0-3.937-5.769 66.543 66.543 0 0 0-4.487-5.586c-1.527-1.77-3.053-3.266-4.579-4.487V108H168.54V39.137l13.644-2.198v40.292zm79.608 29.121c-2.32.671-5.312 1.282-8.974 1.831-3.663.611-7.509.916-11.539.916-4.09 0-7.509-.55-10.256-1.648-2.686-1.099-4.823-2.626-6.41-4.579-1.587-2.015-2.717-4.396-3.388-7.143-.672-2.747-1.008-5.769-1.008-9.066v-26.83h13.645v25.182c0 4.396.58 7.57 1.74 9.524 1.16 1.953 3.327 2.93 6.501 2.93.977 0 2.015-.03 3.114-.091a95.268 95.268 0 0 0 2.93-.367V59.833h13.645v46.519zM305.46 83.55c0-8.791-3.236-13.186-9.707-13.186-1.404 0-2.808.183-4.212.549-1.343.366-2.442.824-3.297 1.374v24.816c.672.122 1.526.244 2.564.366 1.038.061 2.167.092 3.388.092 3.724 0 6.533-1.282 8.425-3.846 1.893-2.564 2.839-5.953 2.839-10.165zm13.919.366c0 3.846-.58 7.326-1.74 10.44-1.099 3.113-2.717 5.769-4.853 7.966-2.137 2.198-4.762 3.908-7.876 5.129-3.113 1.159-6.654 1.739-10.622 1.739-1.648 0-3.388-.091-5.22-.274a78.333 78.333 0 0 1-5.311-.55 104.412 104.412 0 0 1-4.945-.824 67.413 67.413 0 0 1-4.212-1.099V39.137l13.644-2.198v23.992a25.57 25.57 0 0 1 4.762-1.556c1.648-.367 3.419-.55 5.311-.55 3.419 0 6.441.61 9.066 1.832 2.625 1.16 4.823 2.839 6.593 5.036 1.771 2.198 3.114 4.854 4.029 7.967.916 3.053 1.374 6.471 1.374 10.256zm8.197.367c0-4.274.641-7.998 1.923-11.172 1.343-3.236 3.083-5.922 5.22-8.059 2.137-2.137 4.579-3.754 7.326-4.853 2.808-1.099 5.677-1.648 8.608-1.648 6.837 0 12.24 2.106 16.208 6.318 3.968 4.151 5.952 10.287 5.952 18.406 0 .794-.03 1.68-.091 2.656-.061.916-.122 1.74-.183 2.472h-30.952c.305 2.809 1.618 5.037 3.938 6.685 2.319 1.649 5.433 2.473 9.34 2.473 2.503 0 4.945-.214 7.326-.641 2.442-.489 4.426-1.069 5.952-1.74l1.832 11.08c-.733.366-1.71.733-2.931 1.099a31.986 31.986 0 0 1-4.121.916 49.027 49.027 0 0 1-4.761.732c-1.71.183-3.419.275-5.128.275-4.335 0-8.12-.641-11.356-1.923-3.174-1.282-5.83-3.022-7.966-5.22-2.076-2.258-3.633-4.914-4.671-7.966-.976-3.053-1.465-6.35-1.465-9.89zm32.051-5.22a12.802 12.802 0 0 0-.641-3.388 7.543 7.543 0 0 0-1.557-2.93c-.672-.855-1.557-1.557-2.656-2.107-1.037-.55-2.35-.824-3.937-.824-1.526 0-2.839.275-3.938.824-1.099.489-2.014 1.16-2.747 2.015-.733.854-1.313 1.862-1.74 3.022a21.12 21.12 0 0 0-.824 3.388h18.04z" fill="#253391"/><path d="M168.217 150.051v-26.749h18.065v5.056h-12.043v5.25h10.692v4.941h-10.692v6.446h12.931v5.056h-18.953zm43.355 0a199.904 199.904 0 0 1-3.126-6.986 263.67 263.67 0 0 1-2.934-7.18 379.856 379.856 0 0 1-2.586-6.793 292.224 292.224 0 0 1-2.007-5.79h6.639c.515 1.544 1.068 3.216 1.66 5.018l1.853 5.326c.643 1.776 1.261 3.474 1.852 5.096a77.232 77.232 0 0 0 1.66 4.207 108.8 108.8 0 0 0 1.621-4.207c.618-1.622 1.236-3.32 1.853-5.096a215.838 215.838 0 0 0 1.853-5.326 590.528 590.528 0 0 0 1.698-5.018h6.408a828.233 828.233 0 0 1-2.046 5.79 243.944 243.944 0 0 1-2.547 6.793 266.918 266.918 0 0 1-2.934 7.18 199.888 199.888 0 0 1-3.127 6.986h-5.79zm31.486 0v-26.749h18.064v5.056h-12.043v5.25h10.692v4.941h-10.692v6.446h12.931v5.056h-18.952zm52.937 0a134.278 134.278 0 0 0-5.597-9.071 92.172 92.172 0 0 0-6.407-8.453v17.524h-5.945v-26.749h4.903c.849.849 1.788 1.891 2.817 3.126a93.054 93.054 0 0 1 3.127 3.976 100.333 100.333 0 0 1 3.204 4.362 188.996 188.996 0 0 1 2.972 4.323v-15.787h5.983v26.749h-5.057zm42.648-26.749v5.133h-8.067v21.616h-6.022v-21.616h-8.067v-5.133h22.156zm22.745 22.156c.85 0 1.544-.064 2.085-.193.566-.154 1.016-.347 1.351-.579.334-.257.566-.553.695-.888a3.11 3.11 0 0 0 .193-1.119c0-.875-.412-1.596-1.236-2.162-.823-.592-2.238-1.222-4.246-1.891a37.14 37.14 0 0 1-2.624-1.042 10.521 10.521 0 0 1-2.355-1.506 7.505 7.505 0 0 1-1.698-2.2c-.438-.875-.657-1.93-.657-3.165s.232-2.342.695-3.32a7.08 7.08 0 0 1 1.969-2.547c.849-.695 1.878-1.223 3.088-1.583 1.209-.386 2.573-.579 4.091-.579 1.802 0 3.359.193 4.671.579 1.312.386 2.393.811 3.242 1.274l-1.737 4.748a14.958 14.958 0 0 0-2.509-1.004c-.9-.309-1.994-.463-3.281-.463-1.441 0-2.483.206-3.126.617-.618.386-.927.991-.927 1.815 0 .488.116.9.348 1.235.231.334.553.643.965.926.437.257.926.502 1.467.734.566.205 1.183.424 1.852.656a36.429 36.429 0 0 1 3.629 1.544c1.029.489 1.878 1.068 2.547 1.737a6.245 6.245 0 0 1 1.544 2.354c.335.901.502 1.995.502 3.281 0 2.496-.875 4.439-2.625 5.829-1.749 1.364-4.387 2.046-7.913 2.046-1.183 0-2.251-.077-3.203-.232a19.418 19.418 0 0 1-2.548-.502 15.876 15.876 0 0 1-1.891-.656c-.515-.231-.953-.45-1.313-.656l1.699-4.786c.797.437 1.775.836 2.933 1.196 1.184.335 2.625.502 4.323.502z" fill="#4D7CF4"/><path d="M93.243 37.011s6.024 8.954 6.626 14.394c.602 5.44 0 8.662 0 8.662" stroke="#7DA0F7" stroke-width="1.799"/><rect x="78.453" y="22.627" width="10.211" height="24.25" rx="2.398" transform="rotate(-33.443 78.453 22.627)" fill="#0A349F"/><path d="M17 58.233h104.567l-7.689 23.39h-89.19L17 58.233z" fill="#1D59F1"/><path fill="#4D7CF4" d="M17 47.226h104.567v11.007H17zM28.007 139.41h83.929v11.007H28.007z"/><path d="M41.766 127.027h56.411l13.759 12.383H28.007l13.759-12.383z" fill="#7DA0F7"/><path d="M34.482 67.864h69.603l-6.96 66.123H41.442l-6.96-66.123z" fill="#4D7CF4"/><path fill-rule="evenodd" clip-rule="evenodd" d="M69.844 76.564c-.702.05-1.234.651-1.197 1.353v.344c.032.39.091.775.168 1.157.112.732.152 1.473.12 2.213-.069.243-.208.462-.398.63l-.028.516c-.74.062-1.475.175-2.199.34a15.659 15.659 0 0 0-7.96 4.543l-.439-.31a.946.946 0 0 1-.722-.074 11.373 11.373 0 0 1-1.64-1.48c-.25-.3-.517-.583-.799-.85l-.27-.216a1.461 1.461 0 0 0-.847-.32 1.17 1.17 0 0 0-.97.431 1.29 1.29 0 0 0 .3 1.797l.251.201c.325.216.662.413 1.01.59.647.36 1.257.783 1.824 1.28.145.207.23.45.243.703l.399.365a15.758 15.758 0 0 0-2.483 10.981l-.512.146c-.133.212-.31.393-.523.526-.714.191-1.445.312-2.183.361a10.18 10.18 0 0 0-1.17.091l-.323.073h-.037a1.226 1.226 0 0 0-.707 2.07c.326.329.81.445 1.25.301h.024l.329-.036c.371-.11.737-.245 1.093-.399a11.423 11.423 0 0 1 2.125-.621c.252.014.493.1.698.246l.549-.091a15.836 15.836 0 0 0 7.02 8.781l-.223.466c.102.214.14.452.11.688a11.82 11.82 0 0 1-1.103 1.996c-.236.312-.455.638-.654.975l-.156.329a1.225 1.225 0 0 0 1.189 1.83c.459-.052.85-.357 1.01-.79l.153-.311c.138-.365.255-.738.35-1.115.1-.246.186-.497.27-.742.187-.553.366-1.077.672-1.445a.988.988 0 0 1 .523-.256l.274-.499a15.755 15.755 0 0 0 11.237.028l.243.466a.954.954 0 0 1 .621.375c.344.654.622 1.34.834 2.047.097.379.215.752.355 1.117l.151.311a1.224 1.224 0 0 0 2.17.24c.25-.388.262-.883.03-1.282l-.16-.329c-.199-.336-.417-.66-.654-.971a12.955 12.955 0 0 1-1.097-1.932.95.95 0 0 1 .125-.731 4.242 4.242 0 0 1-.203-.492 15.86 15.86 0 0 0 6.989-8.812l.52.091a.967.967 0 0 1 .681-.252 13.29 13.29 0 0 1 2.125.621c.356.165.722.304 1.093.421.048.013.109.025.17.037l.144.03h.024a1.223 1.223 0 0 0 1.538-1.555 1.226 1.226 0 0 0-.995-.816l-.355-.084a10.18 10.18 0 0 0-1.17-.091 11.26 11.26 0 0 1-2.183-.36 1.38 1.38 0 0 1-.526-.527l-.494-.146a15.815 15.815 0 0 0-2.534-10.957l.432-.398a.963.963 0 0 1 .227-.692 11.48 11.48 0 0 1 1.81-1.272c.347-.177.684-.374 1.009-.59l.266-.216a1.225 1.225 0 1 0-1.515-1.904l-.27.216c-.283.268-.55.552-.8.85a11.402 11.402 0 0 1-1.596 1.505c-.234.095-.49.123-.738.08l-.463.33a15.972 15.972 0 0 0-10.12-4.882 6.98 6.98 0 0 0-.02-.424 5.72 5.72 0 0 1-.007-.119.96.96 0 0 1-.398-.607c-.026-.738.021-1.477.139-2.207.078-.383.133-.767.168-1.157v-.365a1.287 1.287 0 0 0-1.198-1.353l-.016-.01zM68.32 86.01l-.365 6.386h-.028c-.018.395-.25.732-.607.922-.356.19-.779.133-1.097-.099l-5.238-3.712a12.543 12.543 0 0 1 6.04-3.289c.427-.091.858-.16 1.292-.208h.003zm10.344 3.517a12.66 12.66 0 0 0-7.295-3.518l.362 6.38a1.076 1.076 0 0 0 1.744.826l5.189-3.688zm-19.58 2.383a12.542 12.542 0 0 0-1.78 7.933l6.148-1.768v-.018a1.076 1.076 0 0 0 .422-1.845v-.028l-4.79-4.274.001-.002-.001.002zm23.319 7.91a12.766 12.766 0 0 0-1.832-7.911l.007.015-4.754 4.254a1.082 1.082 0 0 0-.34 1.05c.086.385.379.69.763.795v.024l6.156 1.773zm-13.54-3.304h1.96l1.197 1.521-.435 1.902-1.76.846-1.765-.846-.415-1.902 1.217-1.52zm6.524 5.189a1.128 1.128 0 0 0-.246 0l-.008.027a1.08 1.08 0 0 0-.93 1.498l2.45 5.931c2.354-1.505 4.16-3.754 5.073-6.387l-6.339-1.069zm-10.892.027c.358.006.69.19.885.49.196.3.227.677.086 1.006v.023l-2.435 5.884a12.581 12.581 0 0 1-5.043-6.32l6.284-1.066a.94.94 0 0 1 .212 0l.011-.017zm6.29 3.123a1.079 1.079 0 0 0-.981-.563l.016.034c-.378.01-.725.211-.914.54l-3.108 5.589c2.214.753 4.593.876 6.871.355l1.238-.366-3.097-5.589h-.024z" fill="#fff"/><path d="M68.647 77.917h.15v-.007l-.15.007zm1.197-1.353.073-.13-.039-.022-.044.003.01.15zm-1.197 1.697h-.15v.013l.15-.013zm.168 1.157.148-.022-.001-.007-.147.03zm.12 2.213.145.04.004-.016.001-.018-.15-.006zm-.398.63-.1-.112-.046.042-.004.062.15.008zm-.028.516.013.15.13-.012.007-.13-.15-.008zm-2.199.34.033.146-.033-.146zm-7.96 4.543-.087.122.107.076.09-.095-.11-.103zm-.439-.31.087-.123-.06-.042-.07.02.043.144zm-.722-.074-.09.12.01.007.009.005.071-.132zm-1.64-1.48-.115.096.004.004.111-.1zm-.799-.85.104-.11-.01-.008-.094.117zm-.27-.216-.094.116.093-.117zm-.847-.32-.008.15h.001l.007-.15zm-.97.431-.117-.095-.006.008.122.087zm.3 1.797.093-.117-.006-.005-.088.122zm.251.201-.093.118.01.007.083-.125zm1.01.59.073-.13-.005-.003-.068.134zm1.824 1.28.123-.085-.01-.015-.014-.012-.099.113zm.243.703-.15.008.004.06.045.042.101-.11zm.399.365.125.083.07-.106-.094-.087-.101.11zm-2.483 10.981.041.144.126-.036-.019-.13-.148.022zm-.512.146-.041-.144-.055.016-.03.048.126.08zm-.523.526.039.145.022-.006.02-.012-.08-.127zm-2.183.361.003.15.007-.001-.01-.149zm-1.17.091-.02-.149-.013.003.033.146zm-.323.073v.15h.016l.017-.004-.033-.146zm-.037 0v-.15h-.01l-.01.002.02.148zm-.99.817.141.049-.142-.049zm.283 1.253-.108.105h.001l.107-.105zm1.25.301v-.15h-.024l-.023.008.047.142zm.024 0v.15h.008l.008-.001-.016-.149zm.329-.036.017.149.013-.002.013-.003-.043-.144zm1.093-.399-.055-.139-.004.002.06.137zm2.125-.621.008-.15-.018-.001-.018.003.028.148zm.698.246-.087.122.05.037.062-.011-.025-.148zm.549-.091.142-.046-.04-.123-.127.021.025.148zm7.02 8.781.135.065.06-.124-.119-.07-.076.129zm-.223.466-.135-.064-.031.064.03.065.136-.065zm.11.688.137.059.009-.019.002-.021-.148-.019zm-1.103 1.996.12.091.004-.006-.124-.085zm-.654.975-.13-.077-.006.013.136.064zm-.156.329.13.075.006-.011-.136-.064zm.034 1.279.126-.082-.126.082zm1.155.551.015.149h.001l-.016-.149zm1.01-.79-.134-.066-.003.007-.003.007.14.052zm.153-.311.135.066.005-.013-.14-.053zm.35-1.115-.139-.056-.003.009-.003.01.145.037zm.27-.742.141.048-.142-.048zm.672-1.445-.103-.109-.006.006-.006.007.115.096zm.523-.256.023.149.073-.012.035-.064-.131-.073zm.274-.499.054-.14-.122-.047-.063.115.131.072zm11.237.028.132-.07-.061-.118-.125.048.053.14zm.243.466-.133.069.035.068.076.011.022-.148zm.621.375.133-.07-.005-.01-.007-.01-.12.09zm.834 2.047.145-.037-.001-.006-.144.043zm.355 1.117-.14.054.005.012.135-.066zm.151.311.141-.053-.006-.013-.135.066zm2.17.24.126.082v-.001l-.126-.081zm.03-1.282-.136.066.006.01.13-.076zm-.16-.329.136-.065-.006-.011-.13.076zm-.654-.971-.123.086.004.005.12-.091zm-1.097-1.932-.146.034.004.015.006.014.136-.063zm.125-.731.126.08.045-.071-.037-.075-.134.066zm-.203-.492-.077-.129-.104.062.039.115.142-.048zm6.989-8.812.026-.148-.13-.023-.039.125.143.046zm.52.091-.027.148.073.012.054-.049-.1-.111zm.681-.252.028-.148-.011-.002H86.1l-.004.15zm2.125.621.063-.136-.011-.004-.052.14zm1.093.421-.045.143.006.001.039-.144zm.17.037-.029.147.03-.147zm0 0 .03-.147h-.001l-.029.147zm.144.03-.035.146.018.004h.017v-.15zm.024 0 .046-.142-.022-.007h-.024v.149zm1.538-1.555.142-.048v-.001l-.142.049zm-.995-.816-.034.146.007.002.007.001.02-.149zm-.355-.084.035-.146-.007-.001-.007-.001-.02.148zm-1.17-.091-.01.149.007.001.003-.15zm-2.183-.36-.073.13.016.009.018.005.04-.144zm-.526-.527.13-.073-.03-.053-.058-.018-.042.144zm-.494-.146-.148-.021-.018.128.124.036.042-.143zm-2.534-10.957-.101-.11-.095.087.072.107.124-.084zm.432-.398.102.11.052-.05-.005-.071-.15.01zm.227-.692-.098-.113-.01.008-.007.008.115.097zm1.81-1.272-.069-.134-.006.004.074.13zm1.009-.59.083.125.01-.009-.093-.117zm.266-.216-.078-.128-.008.005-.008.006.094.117zm.572-1.176.15-.016-.15.016zm-.815-1.022.05-.141-.05.141zm-1.272.294.093.118.007-.006.006-.006-.106-.106zm-.27.216-.094-.117-.01.008.103.11zm-.8.85.113.1.002-.003-.115-.097zm-1.596 1.505.057.139.019-.008.016-.013-.092-.118zm-.738.08.025-.147-.061-.01-.051.035.087.123zm-.463.33-.108.103.09.094.105-.075-.087-.123zm-10.12-4.882h-.149v.137l.136.012.014-.149zm-.02-.424-.149.01.15-.01zm0 0 .15-.01-.15.01zm0 0 .15-.011v-.002l-.15.012zm0 0-.149.011v.001l.15-.013zm0 0 .15-.013v-.005l-.15.017zm0 0-.149.01v.007l.15-.018zm-.007-.119.15-.006-.003-.075-.061-.042-.086.123zm-.398-.607-.15.005v.012l.003.011.147-.028zm.139-2.207-.147-.03-.001.007.148.023zm.168-1.157.15.014v-.014h-.15zm0-.365-.15-.008v.008h.15zm-1.198-1.353-.072.13.029.017.033.002.01-.15zm-1.905 15.822v.15h.141l.008-.141-.15-.009zm.365-6.386.15.008.01-.158h-.16v.15zm-.393 6.386v-.15h-.143l-.007.143.15.007zm-.607.922-.07-.133.07.133zm-1.097-.099.089-.121-.002-.001-.087.122zm-5.238-3.712-.105-.107-.128.126.146.104.087-.123zm6.04-3.289-.032-.146h-.002l.033.146zm1.292-.208v-.15H68.3l.017.15zm3.052 0 .018-.15-.178-.022.01.18.15-.009zm7.295 3.517.087.122.146-.104-.128-.125-.105.107zm-6.933 2.861.15-.002v-.006l-.15.008zm.614.958-.064.136.064-.136zm1.13-.131-.087-.123-.007.006.094.117zM59.084 91.91l-.106-.106-.113.112.119.106.1-.112zm-1.78 7.933-.148.016.019.177.171-.049-.041-.144zm6.148-1.768.04.144.11-.031v-.113h-.15zm0-.018-.04-.145-.11.03v.115h.15zm.422-1.845h-.15v.068l.051.045.099-.113zm0-.028h.15v-.067l-.05-.044-.1.112zm-4.789-4.276.128.079-.234-.185.106.106zm21.486.001.127-.079-.261.146.134-.067zm1.832 7.911-.042.144.174.05.017-.18-.15-.014zm-1.825-7.896.1.111.085-.076-.05-.102-.135.067zm-4.754 4.254.1.112-.1-.112zm-.34 1.05-.146.032.146-.032zm.763.795h.15v-.115l-.111-.03-.04.145zm0 .024h-.15v.112l.108.032.042-.144zm-5.425-1.53.118-.094-.045-.057h-.073v.15zm-1.96 0v-.15h-.072l-.045.055.117.094zm3.158 1.52.146.034.016-.07-.044-.056-.118.092zm-.435 1.902.065.135.065-.031.016-.07-.146-.034zm-1.76.846-.066.135.065.032.065-.032-.065-.135zm-1.765-.846-.147.032.016.071.066.032.065-.135zm-.415-1.902-.117-.093-.045.055.015.07.147-.032zm7.496 3.668-.017-.149-.102.011-.026.099.145.039zm.246 0 .025-.148-.003-.001-.022.149zm-.254.027.009.15.108-.006.028-.105-.145-.039zm-.853.508.127.079-.127-.079zm-.077.99.138-.058v-.001l-.138.059zm2.45 5.931-.139.057.068.166.151-.097-.08-.126zm5.073-6.387.142.05.058-.168-.175-.029-.025.147zm-16.346-.552-.126.082.126-.082zm-.885-.49.002-.15-.081-.001-.046.068.125.083zm.97 1.496-.137-.059-.012.028v.031h.15zm0 .023.14.058.01-.028v-.03h-.15zm-2.434 5.884-.081.126.15.097.069-.166-.138-.057zm-5.043-6.32-.025-.148-.177.03.06.168.142-.05zm6.284-1.066-.016-.15-.01.002.026.148zm.212 0-.015.149.09.009.05-.075-.125-.083zm5.32 2.543-.005-.15-.228.007.098.207.135-.064zm.982.563-.132.071.043.079h.089v-.15zm-.966-.529.004.15.23-.005-.098-.209-.136.064zm-.914.54-.13-.075v.002l.13.073zm-3.108 5.589-.13-.073-.088.157.17.058.048-.142zm6.871.355.034.146.008-.003-.042-.143zm1.238-.366.042.144.18-.053-.091-.164-.131.073zm-3.097-5.589.13-.073-.042-.077h-.088v.15zM68.796 77.91a1.139 1.139 0 0 1 1.059-1.196l-.021-.299a1.439 1.439 0 0 0-1.337 1.51l.3-.015zm0 .351v-.344h-.3v.344h.3zm.166 1.128a10.132 10.132 0 0 1-.166-1.14l-.299.025c.034.396.093.787.17 1.174l.295-.06zm.123 2.248c.033-.75-.008-1.5-.122-2.241l-.296.045c.11.722.15 1.453.119 2.183l.3.013zm-.449.737c.212-.187.366-.431.444-.702l-.289-.083c-.061.216-.184.41-.353.56l.198.225zm.023.41.028-.515-.3-.016-.027.516.3.016zm-2.316.48a15.776 15.776 0 0 1 2.179-.338l-.025-.299a16.1 16.1 0 0 0-2.22.344l.066.292zm-7.884 4.499a15.507 15.507 0 0 1 7.884-4.5l-.066-.292a15.808 15.808 0 0 0-8.036 4.586l.218.206zm-.635-.291.44.31.173-.244-.44-.311-.172.245zm-.706-.064c.256.138.557.17.837.085l-.087-.287a.796.796 0 0 1-.608-.062l-.142.264zm-1.68-1.512c.504.553 1.06 1.056 1.662 1.5l.178-.24a11.23 11.23 0 0 1-1.618-1.462l-.222.202zm-.791-.842a10 10 0 0 1 .787.837l.23-.192c-.254-.303-.524-.59-.81-.863l-.207.218zm-.26-.207.27.215.187-.234-.271-.216-.187.235zm-.761-.288c.277.013.543.114.76.287l.187-.233a1.61 1.61 0 0 0-.933-.353l-.014.3zm-.847.376a1.02 1.02 0 0 1 .846-.376l.016-.3a1.32 1.32 0 0 0-1.095.488l.233.188zm.27 1.581a1.14 1.14 0 0 1-.265-1.588l-.244-.174a1.44 1.44 0 0 0 .335 2.006l.175-.244zm.259.206-.252-.201-.187.234.252.202.187-.235zm.984.574a9.99 9.99 0 0 1-.995-.582l-.166.25c.33.22.672.42 1.024.6l.137-.268zm1.855 1.3a10.628 10.628 0 0 0-1.85-1.297l-.146.262c.638.355 1.24.771 1.798 1.261l.198-.225zm.294.807c-.016-.28-.11-.55-.27-.78l-.246.173c.13.183.204.4.217.624l.299-.017zm.35.264-.398-.366-.203.221.399.366.202-.221zm-2.435 11.069a15.607 15.607 0 0 1 2.459-10.876l-.25-.166a15.908 15.908 0 0 0-2.506 11.085l.297-.043zm-.62.312.512-.146-.082-.288-.512.146.082.288zm-.484.509c.232-.146.425-.343.57-.573l-.254-.16a1.523 1.523 0 0 1-.475.48l.16.253zM51 101.94a11.428 11.428 0 0 0 2.212-.365l-.077-.289c-.705.188-1.427.307-2.154.355l.02.299zm-1.16.091a9.884 9.884 0 0 1 1.153-.091l-.006-.299c-.397.008-.793.039-1.187.093l.04.297zm-.31.07.323-.073-.066-.292-.323.073.066.292zm-.07.004h.037v-.3h-.037v.3zm-.849.716c.132-.384.468-.662.87-.717l-.041-.297a1.374 1.374 0 0 0-1.112.917l.283.097zm.249 1.099a1.075 1.075 0 0 1-.249-1.099l-.283-.097a1.376 1.376 0 0 0 .317 1.406l.215-.21zm1.096.264a1.075 1.075 0 0 1-1.097-.265l-.213.211c.366.369.91.501 1.404.339l-.093-.285zm.07-.008h-.023v.3h.024v-.3zm.313-.035-.329.036.033.298.33-.036-.034-.298zm1.051-.387a9.763 9.763 0 0 1-1.077.392l.086.288a9.936 9.936 0 0 0 1.11-.405l-.119-.275zm2.156-.632c-.738.139-1.458.352-2.152.63l.111.278c.677-.27 1.379-.478 2.096-.613l-.055-.295zm.813.273a1.477 1.477 0 0 0-.777-.275l-.017.299c.224.013.438.089.62.219l.174-.243zm.437-.118-.549.092.05.295.548-.091-.05-.296zm7.121 8.8a15.687 15.687 0 0 1-6.954-8.698l-.285.092a15.987 15.987 0 0 0 7.087 8.864l.152-.258zm-.164.66.223-.466-.27-.13-.223.467.27.129zm.123.642a1.367 1.367 0 0 0-.123-.771l-.27.129c.09.188.123.396.096.603l.297.039zm-1.127 2.062c.437-.637.81-1.315 1.116-2.022l-.275-.119c-.298.69-.662 1.35-1.088 1.971l.247.17zm-.65.966c.197-.332.412-.653.646-.96l-.24-.181c-.24.316-.461.646-.663.988l.258.153zm-.148.317.155-.329-.27-.128-.156.329.27.128zm.024 1.133a1.074 1.074 0 0 1-.03-1.122l-.26-.15a1.374 1.374 0 0 0 .038 1.435l.252-.163zm1.013.484a1.075 1.075 0 0 1-1.013-.484l-.252.163c.282.434.782.673 1.296.619l-.03-.298zm.886-.693c-.141.38-.484.648-.887.693l.033.298a1.375 1.375 0 0 0 1.135-.887l-.28-.104zm.158-.325-.152.311.27.132.151-.311-.27-.132zm.34-1.086a9.928 9.928 0 0 1-.346 1.099l.28.106c.142-.371.26-.749.357-1.131l-.29-.074zm.272-.754c-.084.246-.168.494-.266.735l.278.112c.102-.25.189-.505.272-.75l-.284-.097zm.7-1.492c-.328.393-.514.947-.7 1.492l.284.097c.19-.561.361-1.055.646-1.397l-.23-.192zm.615-.308a1.145 1.145 0 0 0-.603.295l.206.219a.831.831 0 0 1 .443-.217l-.046-.297zm.166-.423-.274.499.262.145.275-.499-.263-.145zm11.314-.04a15.61 15.61 0 0 1-11.13-.028l-.107.28a15.906 15.906 0 0 0 11.344.028l-.107-.28zm.43.537-.244-.467-.265.139.243.466.266-.138zm.609.354a1.098 1.098 0 0 0-.72-.433l-.044.296a.805.805 0 0 1 .523.316l.24-.179zm.856 2.094a11.657 11.657 0 0 0-.844-2.074l-.265.139c.339.646.613 1.323.822 2.021l.287-.086zm.352 1.107a9.992 9.992 0 0 1-.35-1.101l-.29.074c.098.385.218.763.36 1.134l.28-.107zm.146.298-.152-.31-.27.131.153.311.27-.132zm.894.702a1.073 1.073 0 0 1-.888-.689l-.28.106c.182.484.62.824 1.135.881l.033-.298zm1.016-.479a1.072 1.072 0 0 1-1.016.479l-.033.298a1.375 1.375 0 0 0 1.3-.612l-.25-.165zm.025-1.123c.204.349.194.784-.025 1.124l.251.163c.281-.435.294-.991.033-1.438l-.259.151zm-.164-.34.159.329.27-.13-.16-.329-.27.13zm-.64-.945c.234.306.45.626.646.957l.258-.153c-.203-.341-.424-.67-.665-.986l-.238.182zm-1.113-1.96a13.1 13.1 0 0 0 1.11 1.955l.246-.171a12.812 12.812 0 0 1-1.084-1.91l-.272.126zm.134-.875c-.16.251-.212.556-.144.846l.292-.069a.802.802 0 0 1 .105-.616l-.253-.161zm-.218-.363c.059.174.13.344.21.509l.27-.131a4.088 4.088 0 0 1-.197-.475l-.283.097zm6.988-8.906a15.711 15.711 0 0 1-6.923 8.729l.153.257a16.006 16.006 0 0 0 7.056-8.895l-.286-.091zm.688-.011-.519-.091-.052.295.52.092.051-.296zm.66-.254a1.12 1.12 0 0 0-.787.291l.202.222a.815.815 0 0 1 .577-.213l.008-.3zm2.173.631a13.48 13.48 0 0 0-2.149-.629l-.056.295c.714.137 1.417.36 2.1.615l.105-.281zm1.086.418a8.978 8.978 0 0 1-1.076-.414l-.125.272c.362.168.734.309 1.11.428l.09-.286zm.154.033a2.028 2.028 0 0 1-.16-.035l-.078.289c.054.015.12.028.18.04l.058-.294zm0 0-.057.294.057-.294zm.15.032c-.047-.012-.1-.022-.15-.032l-.058.294c.05.01.098.019.138.029l.07-.291zm-.01-.004h-.025v.299h.024v-.299zm1.14-.261a1.074 1.074 0 0 1-1.095.268l-.092.285c.494.16 1.036.027 1.4-.342l-.213-.211zm.255-1.098c.129.385.03.81-.255 1.098l.213.211c.365-.369.491-.912.326-1.404l-.284.095zm-.873-.714c.403.054.74.331.873.715l.283-.097a1.373 1.373 0 0 0-1.116-.915l-.04.297zm-.37-.087.356.084.069-.292-.355-.084-.07.292zm-1.138-.087c.386.007.77.037 1.153.09l.04-.297c-.393-.054-.79-.085-1.187-.093l-.006.3zm-2.219-.366c.723.195 1.464.317 2.213.365l.019-.299a11.036 11.036 0 0 1-2.154-.355l-.078.289zm-.618-.598c.138.245.34.448.584.584l.146-.261a1.228 1.228 0 0 1-.469-.469l-.26.146zm-.405-.076.493.147.085-.288-.493-.146-.085.287zM82.81 89.863a15.663 15.663 0 0 1 2.51 10.852l.297.041a15.964 15.964 0 0 0-2.558-11.06l-.25.167zm.454-.593-.431.399.203.22.431-.398-.203-.22zm.214-.677a1.113 1.113 0 0 0-.262.798l.3-.021a.813.813 0 0 1 .19-.584l-.228-.194zm1.85-1.306c-.648.368-1.264.8-1.833 1.289l.195.227a11.332 11.332 0 0 1 1.787-1.256l-.149-.26zm1-.585c-.32.213-.651.407-.994.582l.137.266c.352-.18.694-.38 1.024-.599l-.166-.25zm.256-.208-.267.216.189.233.267-.216-.189-.233zm.517-1.042c.046.412-.15.813-.501 1.031l.158.255c.45-.28.7-.793.641-1.32l-.298.034zm-.715-.897c.391.136.67.485.715.897l.298-.033a1.375 1.375 0 0 0-.914-1.147l-.099.283zm-1.117.258a1.075 1.075 0 0 1 1.117-.258l.099-.283a1.375 1.375 0 0 0-1.428.33l.212.211zm-.283.227.27-.215-.186-.235-.271.216.187.234zm-.778.83c.246-.294.51-.574.788-.838l-.207-.218c-.286.272-.557.56-.81.863l.23.193zm-1.619 1.526a11.558 11.558 0 0 0 1.617-1.524l-.225-.197a11.258 11.258 0 0 1-1.575 1.485l.183.236zm-.856.11c.277.048.561.017.82-.09l-.112-.277c-.208.085-.436.11-.657.072l-.05.295zm-.35.304.463-.33-.174-.244-.463.33.174.244zm-10.22-4.855a15.823 15.823 0 0 1 10.025 4.836l.217-.207a16.122 16.122 0 0 0-10.215-4.927l-.027.298zm-.156-.563c.009.123.02.292.02.414h.3c0-.135-.013-.314-.02-.434l-.3.02zm0 0 .3-.02-.3.02zm0 0 .3-.02v-.001l-.3.02zm0 .002.3-.026-.3.026zm0-.001.3-.023-.3.023zm0 .006.299-.035-.298.035zm-.007-.13c0 .028.004.072.007.122l.3-.02a5.505 5.505 0 0 1-.008-.114l-.3.012zm-.396-.585c.055.287.222.538.46.703l.17-.247a.81.81 0 0 1-.336-.512l-.294.056zm.138-2.258c-.12.739-.167 1.487-.14 2.235l.299-.01c-.025-.729.02-1.458.137-2.178l-.296-.047zm.167-1.147c-.035.384-.089.762-.166 1.14l.294.06c.08-.39.135-.779.17-1.174l-.298-.026zm0-.352v.365h.299v-.365h-.3zm-1.059-1.204c.622.044 1.09.575 1.058 1.196l.3.015a1.437 1.437 0 0 0-1.337-1.51l-.021.3zm-.079-.028.017.01.145-.262-.016-.01-.146.262zm-1.667 15.71.366-6.387-.3-.017-.365 6.387.3.017zm-.177.141h.028v-.3h-.028v.3zm-.536.904c.398-.212.665-.594.686-1.047l-.3-.014c-.015.337-.212.628-.527.796l.14.265zm-1.256-.11c.358.262.842.33 1.256.11l-.141-.265c-.3.16-.66.116-.938-.087l-.177.242zm-5.237-3.71 5.239 3.711.173-.244-5.238-3.712-.174.245zm6.093-3.558A12.692 12.692 0 0 0 60.88 89.4l.21.214a12.392 12.392 0 0 1 5.967-3.25l-.066-.292zm1.31-.211c-.439.048-.875.118-1.308.21l.062.294c.423-.09.85-.16 1.278-.206l-.033-.298zm.02-.001h-.004v.3h.003v-.3zm3.03.298a12.51 12.51 0 0 1 7.208 3.476l.21-.214a12.81 12.81 0 0 0-7.382-3.56l-.037.298zm.53 6.222L71.519 86l-.3.018.362 6.379.3-.017zm.528.83a.926.926 0 0 1-.528-.824l-.3.004c.006.467.277.892.7 1.092l.128-.271zm.972-.112a.924.924 0 0 1-.972.113l-.128.27c.423.2.923.143 1.288-.15l-.188-.233zm5.196-3.693-5.189 3.688.174.244 5.189-3.688-.174-.244zm-19.393 2.393-.2.224.2-.224zm-1.73 8.029c-.3-2.736.318-5.493 1.758-7.838l-.256-.157a12.692 12.692 0 0 0-1.8 8.027l.298-.032zm5.956-1.896-6.147 1.768.083.288 6.147-1.768-.083-.288zm-.108.126v.018h.3v-.018h-.3zm.766-.829a.926.926 0 0 1-.656.684l.08.29c.43-.12.768-.467.868-.907l-.292-.067zm-.293-.903c.256.223.368.57.293.903l.292.067c.1-.44-.048-.9-.388-1.196l-.197.226zm-.051-.14v.027h.3v-.028h-.3zm-4.74-4.163 4.79 4.274.2-.223-4.79-4.275-.2.224zm-.026-.192-.002.002.256.157.001-.002-.255-.157zm.232.186.001-.002-.212-.212-.001.002.212.212zm21.253-.029a12.615 12.615 0 0 1 1.81 7.819l.299.029a12.915 12.915 0 0 0-1.854-8.004l-.255.156zm.27-.13-.008-.015-.268.134.007.015.268-.134zm-4.789 4.433 4.754-4.255-.2-.223-4.754 4.255.2.223zm-.294.905a.932.932 0 0 1 .294-.904l-.199-.225c-.34.3-.485.756-.387 1.194l.293-.065zm.656.683a.914.914 0 0 1-.656-.683l-.292.065c.098.44.432.789.87.908l.078-.29zm.11.169v-.024h-.3v.024h.3zm6.048 1.63-6.156-1.774-.083.288 6.156 1.773.083-.288zm-11.622-3.31h-1.96v.299h1.96v-.3zm1.316 1.578-1.198-1.522-.235.186 1.197 1.521.236-.185zm-.407 2.027.435-1.901-.292-.067-.435 1.901.292.067zm-1.842.948 1.76-.846-.13-.27-1.76.846.13.27zm-1.894-.846 1.764.846.13-.27-1.764-.846-.13.27zm-.497-2.005.415 1.902.293-.064-.415-1.902-.293.064zm1.247-1.647-1.217 1.522.234.187 1.217-1.521-.234-.188zm6.412 5.432a.975.975 0 0 1 .21-.001l.042-.297a1.288 1.288 0 0 0-.285 0l.033.298zm.121-.083.007-.028-.29-.077-.007.028.29.077zm-.87.548a.926.926 0 0 1 .734-.437l-.017-.299a1.226 1.226 0 0 0-.972.578l.254.158zm-.067.852a.928.928 0 0 1 .066-.852l-.254-.158c-.211.339-.244.759-.088 1.127l.276-.117zm2.45 5.933-2.45-5.932-.277.115 2.45 5.931.277-.114zm4.794-6.379c-.903 2.6-2.686 4.822-5.013 6.31l.161.252c2.383-1.522 4.21-3.798 5.135-6.463l-.283-.099zm-6.222-.872 6.338 1.069.05-.295-6.339-1.07-.05.296zm-9.858.287a1.23 1.23 0 0 0-1.008-.558l-.004.3a.927.927 0 0 1 .761.422l.251-.164zm.099 1.147a1.22 1.22 0 0 0-.099-1.147l-.25.164a.92.92 0 0 1 .073.865l.276.118zm.012-.036v-.023h-.3v.023h.3zm-2.447 5.941 2.435-5.883-.277-.115-2.435 5.884.277.114zm-5.322-6.327a12.725 12.725 0 0 0 5.103 6.396l.161-.252a12.432 12.432 0 0 1-4.982-6.245l-.282.101zm6.4-1.264-6.284 1.066.05.295 6.284-1.066-.05-.295zm.252-.002a1.162 1.162 0 0 0-.243.001l.032.298a.783.783 0 0 1 .18 0l.031-.299zm-.129.05-.01.016.249.167.01-.017-.249-.166zm5.439 2.792a.93.93 0 0 1 .845.485l.264-.143a1.227 1.227 0 0 0-1.119-.641l.01.299zm.147-.179-.017-.035-.27.129.016.035.271-.129zm-.92.678a.93.93 0 0 1 .788-.464l-.007-.299c-.43.01-.826.238-1.04.614l.26.149zm-3.107 5.588 3.108-5.589-.262-.146-3.108 5.589.262.146zm6.707.136a12.467 12.467 0 0 1-6.79-.351l-.096.284a12.76 12.76 0 0 0 6.953.359l-.067-.292zm1.228-.364-1.237.366.085.287 1.237-.365-.085-.288zm-3.186-5.373 3.098 5.59.262-.146-3.097-5.589-.263.145zm.108.078h.024v-.3h-.024v.3z" fill="#fff"/></svg>