<svg xmlns="http://www.w3.org/2000/svg" width="285" height="107" fill="none"><g clip-path="url(#a)"><path fill="#326CE5" d="m45.37 9.79 3.16 5.36h12.3l3.07-5.22 26.36 12.54a6.27 6.27 0 0 1 3.35 3.99l.06.25 8.15 35.38a6.08 6.08 0 0 1-1.02 5.07l-.16.22-22.85 28.37a6.44 6.44 0 0 1-4.66 2.34l-.28.01H36.2a6.33 6.33 0 0 1-4.76-2.12l-.18-.2L8.41 67.4a6.1 6.1 0 0 1-1.3-5.02l.05-.3 8.1-35.35a6.26 6.26 0 0 1 3.41-4.24L45.37 9.8Z"/><path fill="#fff" d="M54.2 6.1h-.03c.95-.03 1.9.14 2.77.52l.3.13 6.66 3.18-3.07 5.22h-12.3l-3.16-5.36 6.38-3.04a6.36 6.36 0 0 1 2.13-.62l.31-.02Z"/><path fill="#fff" d="m46.58 83.45 12.36 11.36c.42.39 1.06.39 1.48 0l12.36-11.36c.42-.4.64-.97.57-1.54L60.83 19.17h-2.3L46 81.9a1.8 1.8 0 0 0 .57 1.54Z" opacity=".28"/><path fill="#fff" d="m41.58 83.45 12.36 11.36c.42.39 1.06.39 1.48 0l12.36-11.36c.42-.4.64-.97.57-1.54l-7.52-62.74h-12.3L41 81.9a1.8 1.8 0 0 0 .57 1.54Z"/><path fill="#326CE5" d="M128.43 40c1.1-1.19 2.21-2.43 3.35-3.72 1.2-1.29 2.33-2.55 3.42-3.8 1.1-1.28 2.11-2.5 3.05-3.64 1-1.14 1.84-2.13 2.53-2.97h13.17a498 498 0 0 1-7.73 8.7c-2.48 2.73-5.21 5.56-8.19 8.48a48.75 48.75 0 0 1 4.61 4.84c1.6 1.83 3.13 3.74 4.62 5.73A85.12 85.12 0 0 1 154.47 65h-12.72c-.8-1.29-1.71-2.7-2.75-4.24a71.1 71.1 0 0 0-3.2-4.69 54 54 0 0 0-3.65-4.54 28.37 28.37 0 0 0-3.72-3.64V65h-11.08V9.05l11.08-1.78V40Zm61.08 23.66a57.94 57.94 0 0 1-7.29 1.49c-2.97.5-6.1.74-9.37.74-3.33 0-6.1-.44-8.34-1.34a12.77 12.77 0 0 1-5.2-3.72 14.98 14.98 0 0 1-2.76-5.8 30.99 30.99 0 0 1-.82-7.37v-21.8h11.09v20.47c0 3.57.47 6.15 1.41 7.73.95 1.59 2.7 2.38 5.29 2.38.79 0 1.63-.02 2.53-.07.89-.1 1.68-.2 2.38-.3v-30.2h11.08v37.8Zm31.88-18.52c0-7.15-2.63-10.72-7.88-10.72-1.15 0-2.29.15-3.43.45-1.09.3-1.98.67-2.68 1.11v20.17c.55.1 1.24.2 2.09.3.84.04 1.76.07 2.75.07 3.02 0 5.3-1.04 6.84-3.13 1.54-2.08 2.31-4.83 2.31-8.25Zm11.31.3c0 3.12-.47 5.94-1.41 8.47a17.5 17.5 0 0 1-3.95 6.48 17.9 17.9 0 0 1-6.4 4.16c-2.53.95-5.4 1.42-8.63 1.42a42.7 42.7 0 0 1-4.24-.23 63.66 63.66 0 0 1-8.33-1.11c-1.29-.3-2.43-.6-3.42-.9V9.06l11.08-1.78v19.49a19.86 19.86 0 0 1 8.18-1.71c2.78 0 5.24.5 7.37 1.49 2.14.94 3.92 2.3 5.36 4.09a18.5 18.5 0 0 1 3.27 6.47 28.96 28.96 0 0 1 1.12 8.33Zm3.06.29c0-3.47.52-6.5 1.56-9.08 1.1-2.63 2.5-4.8 4.24-6.54a17.58 17.58 0 0 1 5.95-3.95c2.29-.89 4.62-1.34 7-1.34 5.55 0 9.94 1.72 13.17 5.14 3.22 3.37 4.83 8.36 4.83 14.95 0 .65-.02 1.37-.07 2.16l-.15 2h-25.15a7.37 7.37 0 0 0 3.2 5.44c1.89 1.34 4.42 2 7.6 2 2.02 0 4-.17 5.94-.51 1.99-.4 3.6-.87 4.84-1.42l1.49 9c-.6.3-1.4.6-2.38.9a26 26 0 0 1-3.35.74 39.79 39.79 0 0 1-8.04.82c-3.52 0-6.6-.52-9.22-1.56a18.6 18.6 0 0 1-6.47-4.24 18 18 0 0 1-3.8-6.47 26.24 26.24 0 0 1-1.19-8.04Zm26.04-4.24a10.4 10.4 0 0 0-.52-2.75 6.14 6.14 0 0 0-1.27-2.38 6.23 6.23 0 0 0-2.15-1.72 6.8 6.8 0 0 0-3.2-.66 7.08 7.08 0 0 0-5.43 2.3c-.6.7-1.07 1.51-1.42 2.46-.3.89-.52 1.8-.67 2.75h14.66Z"/><path fill="#001A51" d="M141.4 82.5c-.66-5.54-4.86-8.73-10.4-8.73-6.35 0-11.19 4.48-11.19 12.33 0 7.83 4.76 12.33 11.18 12.33 6.15 0 9.87-4.1 10.42-8.51l-5.13-.02c-.49 2.56-2.5 4.04-5.2 4.04-3.65 0-6.13-2.7-6.13-7.84 0-5 2.44-7.84 6.16-7.84 2.77 0 4.78 1.6 5.17 4.24h5.13Zm7.95 15.6 1.78-5.47h8.66l1.78 5.47h5.44l-8.27-24h-6.54l-8.29 24h5.44Zm3.07-9.43 2.95-9.09h.2l2.94 9.09h-6.09Zm18.1 9.43h5.07v-8.5h3.7l4.55 8.5h5.6l-5.1-9.33c2.74-1.17 4.25-3.55 4.25-6.83 0-4.77-3.15-7.84-8.6-7.84h-9.47v24Zm5.07-12.59v-7.26h3.42c2.93 0 4.35 1.3 4.35 3.69 0 2.38-1.42 3.57-4.32 3.57h-3.45Zm17.2 12.59h16.22v-4.18h-11.14v-5.73h10.26V84h-10.26v-5.72h11.1V74.1h-16.18v24Zm20.83 0h16.22v-4.18h-11.15v-5.73h10.27V84h-10.27v-5.72h11.1V74.1h-16.17v24Zm20.82 0h5.07v-8.5h3.7l4.55 8.5h5.6l-5.1-9.33c2.74-1.17 4.25-3.55 4.25-6.83 0-4.77-3.15-7.84-8.6-7.84h-9.47v24Zm5.07-12.59v-7.26h3.43c2.93 0 4.34 1.3 4.34 3.69 0 2.38-1.41 3.57-4.32 3.57h-3.45Zm30.22-4.5h4.87c-.07-4.28-3.59-7.24-8.93-7.24-5.26 0-9.12 2.9-9.1 7.27 0 3.54 2.49 5.56 6.54 6.54l2.62.65c2.61.64 4.06 1.39 4.07 3 0 1.76-1.67 2.96-4.25 2.96-2.64 0-4.53-1.22-4.7-3.63h-4.9c.12 5.2 3.84 7.88 9.66 7.88 5.86 0 9.3-2.8 9.32-7.2-.02-4-3.03-6.11-7.2-7.05l-2.16-.52c-2.08-.48-3.83-1.25-3.8-2.97 0-1.55 1.38-2.69 3.86-2.69 2.43 0 3.92 1.1 4.1 3Z"/></g><defs><clipPath id="a"><path fill="#fff" d="M0 0h285v107H0z"/></clipPath></defs></svg>